<svg xmlns="http://www.w3.org/2000/svg" width="100" height="100" viewBox="0 0 100 100">
  <!-- Green Heart representing a life in the typing game -->
  <path
    d="M50,85 C30,65 15,50 15,30 C15,15 30,15 35,20 C40,25 50,30 50,30 C50,30 60,25 65,20 C70,15 85,15 85,30 C85,50 70,65 50,85 Z"
    fill="#2ecc71"
    stroke="#27ae60"
    stroke-width="3"
    stroke-linejoin="round"
    style="filter: drop-shadow(1px 1px 1px rgba(0,0,0,0.3));"
  />
  <!-- Optional shine effect for better visibility -->
  <path
    d="M35,35 C35,30 40,25 45,25 C48,25 50,27 50,30 C50,33 48,35 45,35 C42,35 39,38 38,40"
    fill="none"
    stroke="white"
    stroke-opacity="0.6"
    stroke-width="1.5"
  />
</svg>